<mxfile host="app.diagrams.net" agent="Mozilla/5.0 (Windows NT 10.0; Win64; x64) AppleWebKit/537.36 (KHTML, like Gecko) Chrome/129.0.0.0 Safari/537.36" version="24.7.17">
  <diagram name="Page-1" id="r3Nct8LjqmlIoaS-y5Mq">
    <mxGraphModel dx="1900" dy="583" grid="1" gridSize="10" guides="1" tooltips="1" connect="1" arrows="1" fold="1" page="1" pageScale="1" pageWidth="850" pageHeight="1100" math="0" shadow="0">
      <root>
        <mxCell id="0" />
        <mxCell id="1" parent="0" />
        <mxCell id="UWCO3QOiOpSwd70VDAWc-1" value="" style="rounded=0;whiteSpace=wrap;html=1;fillColor=#f5f5f5;fontColor=#333333;strokeColor=#666666;" parent="1" vertex="1">
          <mxGeometry x="360" y="120" width="270" height="330" as="geometry" />
        </mxCell>
        <mxCell id="UWCO3QOiOpSwd70VDAWc-2" value="" style="ellipse;whiteSpace=wrap;html=1;fillColor=#d5e8d4;strokeColor=#82b366;" parent="1" vertex="1">
          <mxGeometry x="480" y="170" width="140" height="90" as="geometry" />
        </mxCell>
        <mxCell id="UWCO3QOiOpSwd70VDAWc-3" value="" style="image;sketch=0;aspect=fixed;html=1;points=[];align=center;fontSize=12;image=img/lib/mscae/Docker.svg;" parent="1" vertex="1">
          <mxGeometry x="537.81" y="180" width="24.39" height="20" as="geometry" />
        </mxCell>
        <mxCell id="UWCO3QOiOpSwd70VDAWc-4" value="" style="html=1;verticalLabelPosition=bottom;align=center;labelBackgroundColor=#ffffff;verticalAlign=top;strokeWidth=2;strokeColor=#0080F0;shadow=0;dashed=0;shape=mxgraph.ios7.icons.user;" parent="1" vertex="1">
          <mxGeometry x="-40" y="230" width="70" height="60" as="geometry" />
        </mxCell>
        <mxCell id="UWCO3QOiOpSwd70VDAWc-5" style="edgeStyle=orthogonalEdgeStyle;rounded=0;orthogonalLoop=1;jettySize=auto;html=1;entryX=0;entryY=0.5;entryDx=0;entryDy=0;" parent="1" source="UWCO3QOiOpSwd70VDAWc-4" target="UWCO3QOiOpSwd70VDAWc-7" edge="1">
          <mxGeometry relative="1" as="geometry" />
        </mxCell>
        <mxCell id="UWCO3QOiOpSwd70VDAWc-6" value="&lt;b&gt;80&lt;/b&gt;" style="ellipse;whiteSpace=wrap;html=1;aspect=fixed;fillColor=#dae8fc;strokeColor=#6c8ebf;" parent="1" vertex="1">
          <mxGeometry x="460" y="190" width="50" height="50" as="geometry" />
        </mxCell>
        <mxCell id="UWCO3QOiOpSwd70VDAWc-8" style="edgeStyle=orthogonalEdgeStyle;rounded=0;orthogonalLoop=1;jettySize=auto;html=1;" parent="1" source="UWCO3QOiOpSwd70VDAWc-7" target="UWCO3QOiOpSwd70VDAWc-6" edge="1">
          <mxGeometry relative="1" as="geometry" />
        </mxCell>
        <mxCell id="UWCO3QOiOpSwd70VDAWc-7" value="&lt;b&gt;host port&lt;/b&gt;" style="ellipse;whiteSpace=wrap;html=1;" parent="1" vertex="1">
          <mxGeometry x="320" y="220" width="120" height="80" as="geometry" />
        </mxCell>
        <mxCell id="K108HAiIDrzwfuaOVCEm-1" value="" style="endArrow=none;html=1;rounded=0;exitX=0;exitY=0.75;exitDx=0;exitDy=0;entryX=1;entryY=0.75;entryDx=0;entryDy=0;" parent="1" source="UWCO3QOiOpSwd70VDAWc-1" target="UWCO3QOiOpSwd70VDAWc-1" edge="1">
          <mxGeometry width="50" height="50" relative="1" as="geometry">
            <mxPoint x="450" y="330" as="sourcePoint" />
            <mxPoint x="500" y="280" as="targetPoint" />
          </mxGeometry>
        </mxCell>
        <mxCell id="K108HAiIDrzwfuaOVCEm-2" value="&lt;b&gt;Storage&lt;/b&gt;" style="text;html=1;align=center;verticalAlign=middle;resizable=0;points=[];autosize=1;strokeColor=none;fillColor=none;" parent="1" vertex="1">
          <mxGeometry x="450" y="390" width="70" height="30" as="geometry" />
        </mxCell>
        <mxCell id="K108HAiIDrzwfuaOVCEm-3" value="" style="ellipse;whiteSpace=wrap;html=1;fillColor=#d5e8d4;strokeColor=#82b366;" parent="1" vertex="1">
          <mxGeometry x="460" y="270" width="100" height="50" as="geometry" />
        </mxCell>
        <mxCell id="K108HAiIDrzwfuaOVCEm-5" value="" style="image;sketch=0;aspect=fixed;html=1;points=[];align=center;fontSize=12;image=img/lib/mscae/Docker.svg;" parent="1" vertex="1">
          <mxGeometry x="482.79999999999995" y="275" width="24.39" height="20" as="geometry" />
        </mxCell>
        <mxCell id="K108HAiIDrzwfuaOVCEm-6" value="" style="rounded=0;whiteSpace=wrap;html=1;" parent="1" vertex="1">
          <mxGeometry x="230" y="510" width="500" height="230" as="geometry" />
        </mxCell>
        <mxCell id="K108HAiIDrzwfuaOVCEm-7" value="&lt;b&gt;MySQL&lt;/b&gt;" style="ellipse;whiteSpace=wrap;html=1;fillColor=#d5e8d4;gradientColor=#97d077;strokeColor=#82b366;" parent="1" vertex="1">
          <mxGeometry x="600" y="580" width="120" height="80" as="geometry" />
        </mxCell>
        <mxCell id="K108HAiIDrzwfuaOVCEm-9" style="edgeStyle=orthogonalEdgeStyle;rounded=0;orthogonalLoop=1;jettySize=auto;html=1;" parent="1" source="K108HAiIDrzwfuaOVCEm-8" target="K108HAiIDrzwfuaOVCEm-7" edge="1">
          <mxGeometry relative="1" as="geometry" />
        </mxCell>
        <mxCell id="K108HAiIDrzwfuaOVCEm-8" value="&lt;b&gt;Backend&lt;/b&gt;" style="ellipse;whiteSpace=wrap;html=1;fillColor=#dae8fc;gradientColor=#7ea6e0;strokeColor=#6c8ebf;" parent="1" vertex="1">
          <mxGeometry x="417.81" y="580" width="120" height="80" as="geometry" />
        </mxCell>
        <mxCell id="K108HAiIDrzwfuaOVCEm-11" style="edgeStyle=orthogonalEdgeStyle;rounded=0;orthogonalLoop=1;jettySize=auto;html=1;entryX=0;entryY=0.5;entryDx=0;entryDy=0;" parent="1" source="K108HAiIDrzwfuaOVCEm-10" target="K108HAiIDrzwfuaOVCEm-8" edge="1">
          <mxGeometry relative="1" as="geometry" />
        </mxCell>
        <mxCell id="K108HAiIDrzwfuaOVCEm-10" value="&lt;b&gt;Frontend&lt;/b&gt;" style="ellipse;whiteSpace=wrap;html=1;fillColor=#f8cecc;gradientColor=#ea6b66;strokeColor=#b85450;" parent="1" vertex="1">
          <mxGeometry x="260" y="580" width="120" height="80" as="geometry" />
        </mxCell>
        <mxCell id="K108HAiIDrzwfuaOVCEm-13" style="edgeStyle=orthogonalEdgeStyle;rounded=0;orthogonalLoop=1;jettySize=auto;html=1;" parent="1" source="K108HAiIDrzwfuaOVCEm-12" target="K108HAiIDrzwfuaOVCEm-10" edge="1">
          <mxGeometry relative="1" as="geometry" />
        </mxCell>
        <mxCell id="K108HAiIDrzwfuaOVCEm-12" value="" style="html=1;verticalLabelPosition=bottom;align=center;labelBackgroundColor=#ffffff;verticalAlign=top;strokeWidth=2;strokeColor=#0080F0;shadow=0;dashed=0;shape=mxgraph.ios7.icons.user;" parent="1" vertex="1">
          <mxGeometry x="10" y="590" width="70" height="60" as="geometry" />
        </mxCell>
        <mxCell id="K108HAiIDrzwfuaOVCEm-14" value="" style="image;sketch=0;aspect=fixed;html=1;points=[];align=center;fontSize=12;image=img/lib/mscae/Docker.svg;" parent="1" vertex="1">
          <mxGeometry x="472.79999999999995" y="530" width="24.39" height="20" as="geometry" />
        </mxCell>
        <mxCell id="Y9GsViFgkPydXTZch6_y-1" value="" style="whiteSpace=wrap;html=1;" vertex="1" parent="1">
          <mxGeometry x="220" y="670" width="120" height="60" as="geometry" />
        </mxCell>
      </root>
    </mxGraphModel>
  </diagram>
</mxfile>
